<?xml version="1.0" encoding="UTF-8"?>
<svg width="19px" height="15px" viewBox="0 0 19 15" version="1.1" xmlns="http://www.w3.org/2000/svg" xmlns:xlink="http://www.w3.org/1999/xlink">
    <!-- Generator: Sketch 43.1 (39012) - http://www.bohemiancoding.com/sketch -->
    <title>corporate_icon_active</title>
    <desc>Created with Sketch.</desc>
    <defs></defs>
    <g id="Page-1" stroke="none" stroke-width="1" fill="none" fill-rule="evenodd">
        <g id="corporate_icon_active" fill="#178972">
            <g id="Page-1">
                <path d="M16.0267424,6.09855114 C15.4961498,6.09855114 15.0659835,5.67775568 15.0659835,5.15832386 C15.0659835,4.63928977 15.4961498,4.21809659 16.0267424,4.21809659 C16.5577416,4.21809659 16.9879078,4.63928977 16.9879078,5.15832386 C16.9879078,5.67775568 16.5577416,6.09855114 16.0267424,6.09855114 L16.0267424,6.09855114 Z M16.0267424,9.40684659 C15.4961498,9.40684659 15.0659835,8.98605114 15.0659835,8.46661932 C15.0659835,7.9471875 15.4961498,7.52639205 16.0267424,7.52639205 C16.5577416,7.52639205 16.9879078,7.9471875 16.9879078,8.46661932 C16.9879078,8.98605114 16.5577416,9.40684659 16.0267424,9.40684659 L16.0267424,9.40684659 Z M13.9543819,14.3183807 L18.0991029,14.3183807 L18.0991029,1.28326705 L13.9543819,1.28326705 L13.9543819,14.3183807 Z" id="Fill-1"></path>
                <path d="M2.07223852,6.09855114 C1.54164593,6.09855114 1.11147967,5.67775568 1.11147967,5.15832386 C1.11147967,4.63928977 1.54164593,4.21809659 2.07223852,4.21809659 C2.6032377,4.21809659 3.03340395,4.63928977 3.03340395,5.15832386 C3.03340395,5.67775568 2.6032377,6.09855114 2.07223852,6.09855114 L2.07223852,6.09855114 Z M2.07223852,9.40684659 C1.54164593,9.40684659 1.11147967,8.98605114 1.11147967,8.46661932 C1.11147967,7.9471875 1.54164593,7.52639205 2.07223852,7.52639205 C2.6032377,7.52639205 3.03340395,7.9471875 3.03340395,8.46661932 C3.03340395,8.98605114 2.6032377,9.40684659 2.07223852,9.40684659 L2.07223852,9.40684659 Z M-0.000121975309,14.3183807 L4.14459901,14.3183807 L4.14459901,1.28326705 L-0.000121975309,1.28326705 L-0.000121975309,14.3183807 Z" id="Fill-4"></path>
                <path d="M10.5850986,3.56749432 C10.054506,3.56749432 9.62433975,3.14669886 9.62433975,2.62726705 C9.62433975,2.10823295 10.054506,1.68703977 10.5850986,1.68703977 C11.1160978,1.68703977 11.546264,2.10823295 11.546264,2.62726705 C11.546264,3.14669886 11.1160978,3.56749432 10.5850986,3.56749432 L10.5850986,3.56749432 Z M10.5850986,7.27351705 C10.054506,7.27351705 9.62433975,6.85272159 9.62433975,6.33328977 C9.62433975,5.81385795 10.054506,5.3930625 10.5850986,5.3930625 C11.1160978,5.3930625 11.546264,5.81385795 11.546264,6.33328977 C11.546264,6.85272159 11.1160978,7.27351705 10.5850986,7.27351705 L10.5850986,7.27351705 Z M7.50603523,3.56749432 C6.97544263,3.56749432 6.54486979,3.14669886 6.54486979,2.62726705 C6.54486979,2.10823295 6.97544263,1.68703977 7.50603523,1.68703977 C8.03662782,1.68703977 8.46720066,2.10823295 8.46720066,2.62726705 C8.46720066,3.14669886 8.03662782,3.56749432 7.50603523,3.56749432 L7.50603523,3.56749432 Z M7.50603523,7.27351705 C6.97544263,7.27351705 6.54486979,6.85272159 6.54486979,6.33328977 C6.54486979,5.81385795 6.97544263,5.3930625 7.50603523,5.3930625 C8.03662782,5.3930625 8.46720066,5.81385795 8.46720066,6.33328977 C8.46720066,6.85272159 8.03662782,7.27351705 7.50603523,7.27351705 L7.50603523,7.27351705 Z M4.89169778,-0.000119318182 L4.89169778,14.3180625 L8.0890772,14.3180625 L8.0890772,11.1199375 L10.0101883,11.1199375 L10.0101883,14.3180625 L13.2075677,14.3180625 L13.2075677,-0.000119318182 L4.89169778,-0.000119318182 Z" id="Fill-7"></path>
            </g>
        </g>
    </g>
</svg>